<?xml version="1.0" standalone="no"?>
<!DOCTYPE svg PUBLIC "-//W3C//DTD SVG 20010904//EN"
 "http://www.w3.org/TR/2001/REC-SVG-20010904/DTD/svg10.dtd">
<svg version="1.0" xmlns="http://www.w3.org/2000/svg"
 width="469.000000pt" height="107.000000pt" viewBox="0 0 469.000000 107.000000"
 preserveAspectRatio="xMidYMid meet">
<metadata>
Created by potrace 1.16, written by Peter Selinger 2001-2019
</metadata>
<g transform="translate(0.000000,107.000000) scale(0.100000,-0.100000)"
fill="#000000" stroke="none">
<path d="M261 1054 c-68 -18 -109 -43 -156 -95 -59 -66 -80 -121 -80 -214 0
-66 5 -90 26 -136 32 -68 83 -120 152 -156 52 -28 53 -28 315 -33 l264 -5 24
-28 c32 -37 32 -86 -1 -121 l-24 -26 -339 0 -339 0 -46 -121 -45 -120 402 3
401 3 67 33 c132 65 201 197 178 338 -18 108 -89 203 -184 246 -48 22 -67 23
-314 28 l-264 5 -24 28 c-32 38 -32 90 1 122 l24 25 339 0 339 0 42 113 c22
61 41 115 41 120 0 4 -168 7 -372 6 -294 0 -385 -3 -427 -15z"/>
<path d="M1095 1058 c-3 -7 -22 -60 -44 -118 l-39 -105 149 -3 149 -3 0 -414
0 -415 115 0 115 0 0 415 0 414 122 3 123 3 42 110 c23 61 42 113 43 118 0 4
-173 7 -385 7 -299 0 -387 -3 -390 -12z"/>
<path d="M1894 1033 c-20 -46 -74 -193 -74 -199 0 -2 165 -4 366 -4 l366 0 29
-29 c26 -26 29 -36 29 -90 l0 -60 -322 -3 c-371 -4 -377 -5 -468 -98 -67 -69
-93 -140 -88 -240 8 -124 80 -229 196 -283 46 -21 58 -22 480 -25 l433 -3 -3
418 -3 418 -27 50 c-32 62 -102 129 -166 158 -45 20 -63 22 -390 25 l-342 3
-16 -38z m714 -705 l-3 -93 -292 0 -291 0 -25 23 c-32 30 -41 67 -26 104 23
55 37 57 352 58 l288 0 -3 -92z"/>
<path d="M2893 957 c-24 -62 -43 -116 -43 -120 0 -4 68 -7 150 -7 l150 0 0
-415 0 -415 115 0 115 0 0 415 0 415 119 0 120 0 19 53 c11 28 32 82 46 120
l25 67 -387 0 -387 0 -42 -113z"/>
<path d="M3701 960 c-22 -61 -41 -115 -41 -120 0 -6 137 -10 365 -10 l366 0
24 -25 c21 -21 25 -33 25 -89 l0 -65 -317 -3 c-309 -3 -319 -4 -370 -27 -63
-28 -136 -103 -165 -169 -16 -34 -21 -68 -22 -124 0 -134 68 -238 194 -297
l55 -26 433 -3 432 -3 0 389 c0 325 -3 397 -16 442 -30 101 -83 162 -184 209
l-55 26 -341 3 -341 3 -42 -111z m739 -635 l0 -95 -267 0 c-282 0 -332 6 -358
43 -31 44 -11 117 39 137 11 5 148 9 304 9 l282 1 0 -95z"/>
</g>
</svg>
